<svg width="374" height="276" viewBox="0 0 374 276" fill="none" xmlns="http://www.w3.org/2000/svg">
<path d="M255.725 242.471C255.725 311.903 199.519 368.188 130.186 368.188C60.8531 368.188 4.64587 311.903 4.64587 242.471C4.6459 173.038 60.8531 116.753 130.186 116.753C199.519 116.753 255.725 173.038 255.725 242.471Z" stroke="#6246E5"/>
<path d="M283.918 232.506C283.918 310.194 221.029 373.17 143.453 373.17C65.8773 373.17 2.98762 310.194 2.98742 232.506C2.98742 154.819 65.8772 91.8413 143.453 91.8413C221.029 91.8415 283.918 154.819 283.918 232.506Z" stroke="#6246E5"/>
<path d="M307.965 224.203C307.965 309.228 239.136 378.153 154.233 378.153C69.3292 378.153 0.50035 309.228 0.500115 224.203C0.500119 139.178 69.3291 70.2517 154.233 70.2517C239.136 70.2517 307.965 139.178 307.965 224.203Z" stroke="#6246E5"/>
<path d="M335.329 215.899C335.329 307.345 261.302 381.475 169.987 381.475C78.6728 381.475 4.64665 307.345 4.6466 215.899C4.6466 124.453 78.6728 50.323 169.987 50.3228C261.302 50.3228 335.329 124.453 335.329 215.899Z" stroke="#6246E5"/>
<path d="M361.864 208.01C361.864 305.647 282.825 384.796 185.327 384.796C87.8305 384.796 8.79235 305.647 8.79235 208.01C8.79239 110.373 87.8305 31.2241 185.328 31.2239C282.825 31.2239 361.864 110.373 361.864 208.01Z" stroke="#6246E5"/>
<path d="M396.69 194.725C396.69 301.992 309.855 388.948 202.741 388.948C95.6269 388.948 8.79209 301.992 8.79186 194.725C8.79187 87.457 95.6268 0.500136 202.741 0.500009C309.855 0.500014 396.69 87.4569 396.69 194.725Z" stroke="#6246E5"/>
</svg>
